<?xml version="1.0" encoding="utf-8"?>
<!-- Generator: Adobe Illustrator 21.1.0, SVG Export Plug-In . SVG Version: 6.00 Build 0)  -->
<svg version="1.1" id="Capa_1" xmlns="http://www.w3.org/2000/svg" xmlns:xlink="http://www.w3.org/1999/xlink" x="0px" y="0px"
	 viewBox="0 0 378.9 378.9" style="enable-background:new 0 0 378.9 378.9;" xml:space="preserve">
<style type="text/css">
	.st0{fill:#A82626;}
</style>
<g>
	<g id="XMLID_1_">
		<g>
			<path class="st0" d="M325.1,77.5c28.4,28.4,28.4,74.5,0,102.9L189.5,316.1L53.8,180.4c-28.4-28.4-28.4-74.5,0-102.9
				c13.7-13.7,32-21.3,51.5-21.3s37.7,7.5,51.4,21.3L178,98.8c6.1,6.1,16.9,6.1,23,0l21.3-21.3c13.7-13.7,32-21.3,51.4-21.3
				C293.1,56.2,311.4,63.8,325.1,77.5z"/>
			<path class="st0" d="M348.1,54.5c41.1,41.1,41.1,107.9,0,148.9L201.1,350.5c-3.2,3.2-7.3,4.8-11.5,4.8c-1.1,0-2.1-0.1-3.2-0.3
				c-3.1-0.6-6.1-2.1-8.5-4.5L30.8,203.4c-41.1-41-41.1-107.8,0-148.9c19.9-19.9,46.3-30.8,74.4-30.8s54.6,10.9,74.4,30.8l9.8,9.8
				l9.8-9.8c19.9-19.9,46.3-30.8,74.4-30.8C301.8,23.7,328.3,34.6,348.1,54.5z M325.1,180.4c28.4-28.4,28.4-74.5,0-102.9
				c-13.7-13.7-32-21.3-51.4-21.3c-19.4,0-37.7,7.5-51.4,21.3L201,98.8c-6.1,6.1-16.9,6.1-23,0l-21.3-21.3
				c-13.7-13.7-32-21.3-51.4-21.3s-37.7,7.5-51.5,21.3c-28.4,28.4-28.4,74.5,0,102.9l135.7,135.7L325.1,180.4z"/>
		</g>
		<g>
		</g>
	</g>
</g>
<path class="st0" d="M-374,34"/>
</svg>
