<?xml version="1.0" encoding="utf-8"?>
<!-- Generator: Adobe Illustrator 17.1.0, SVG Export Plug-In . SVG Version: 6.00 Build 0)  -->
<!DOCTYPE svg PUBLIC "-//W3C//DTD SVG 1.1//EN" "http://www.w3.org/Graphics/SVG/1.1/DTD/svg11.dtd">
<svg version="1.1" id="Layer_1" xmlns="http://www.w3.org/2000/svg" xmlns:xlink="http://www.w3.org/1999/xlink" x="0px" y="0px"
	 width="154px" height="53.4px" viewBox="0 0.3 154 53.4" enable-background="new 0 0.3 154 53.4" xml:space="preserve">
<g>
	<path fill="#002B45" d="M74.6,39.3c-0.4,0-0.6-0.1-0.6-0.6V15.3c0-0.4,0.1-0.6,0.6-0.6h11.3c4.4,0,6.9,2.4,6.9,6.5v11.5
		c0,4.1-2.5,6.5-6.9,6.5H74.6z M85.2,34.3c1.7,0,2.3-0.7,2.3-2.5v-9.7c0-1.8-0.7-2.5-2.3-2.5h-5.9v14.6H85.2z M101.6,38.7
		c0,0.4-0.1,0.6-0.6,0.6h-4.2c-0.4,0-0.6-0.1-0.6-0.6V15.3c0-0.4,0.1-0.6,0.6-0.6h15.1c0.4,0,0.6,0.1,0.6,0.6v3.8
		c0,0.4-0.1,0.6-0.6,0.6h-10.3V25h9c0.4,0,0.6,0.1,0.6,0.6v3.8c0,0.4-0.1,0.6-0.6,0.6h-9V38.7z M115.9,39.3c-0.4,0-0.6-0.1-0.6-0.6
		V15.3c0-0.4,0.1-0.6,0.6-0.6h11.3c4.4,0,6.9,2.4,6.9,6.5v11.5c0,4.1-2.5,6.5-6.9,6.5H115.9z M126.5,34.3c1.7,0,2.3-0.7,2.3-2.5
		v-9.7c0-1.8-0.7-2.5-2.3-2.5h-5.9v14.6H126.5z M137.6,39.3c-0.4,0-0.6-0.1-0.6-0.6v-3.8c0-0.4,0.1-0.6,0.6-0.6c0,0,5,0.1,8.8,0.1
		c1.7,0,2.3-0.1,2.3-1.9v-0.6c0-1.3-0.3-1.7-1.5-2l-5.4-1.8c-2.4-0.7-4.8-1.5-4.8-5.9v-1.9c0-4.1,2.5-5.9,6.9-5.9
		c3.8,0,8.2,0.1,8.2,0.1c0.4,0,0.6,0.1,0.6,0.6v3.8c0,0.4-0.1,0.6-0.6,0.6c0,0-4-0.1-7.5-0.1c-1.7,0-2.3,0-2.3,1.8v0.5
		c0,1.3,0.3,1.5,1.5,1.9l5.4,1.8c2.3,0.7,4.8,1.5,4.8,5.9v1.9c0,4.1-2.5,6.1-6.9,6.1C142.7,39.4,137.6,39.3,137.6,39.3z"/>
	<path fill="#002B45" d="M43.5,53.5L74,1c0.2-0.3,0-0.6-0.3-0.6H30.9c-0.1,0-0.3,0.1-0.3,0.2L0.1,53c-0.2,0.3,0,0.6,0.3,0.6h42.7
		C43.3,53.7,43.4,53.6,43.5,53.5z"/>
	<path fill="#FFFFFF" d="M49.1,35l-9.9-5.9c-0.1,0-0.2,0-0.1,0.1l5.9,9.9c0,0.1,0,0.2-0.1,0.2H29.1c-0.1,0-0.1-0.1-0.1-0.2l6-9.9
		c0-0.1,0-0.2-0.1-0.1L25,35c-0.1,0-0.2,0-0.2-0.1V19.1c0-0.1,0.1-0.1,0.2-0.1l9.8,5.9c0.1,0,0.2,0,0.1-0.1L29,14.9
		c0-0.1,0-0.2,0.1-0.2h15.8c0.1,0,0.1,0.1,0.1,0.2l-5.9,9.9c0,0.1,0,0.2,0.1,0.1l9.8-5.9c0.1,0,0.2,0,0.2,0.1v15.9
		C49.3,35,49.2,35.1,49.1,35z"/>
</g>
</svg>
