<?xml version="1.0" encoding="utf-8"?>
<!-- Generator: Adobe Illustrator 21.1.0, SVG Export Plug-In . SVG Version: 6.00 Build 0)  -->
<svg version="1.1" id="Capa_1" xmlns="http://www.w3.org/2000/svg" xmlns:xlink="http://www.w3.org/1999/xlink" x="0px" y="0px"
	 viewBox="0 0 512 512" style="enable-background:new 0 0 512 512;" xml:space="preserve">
<style type="text/css">
	.st0{fill:#B1B2B3;}
</style>
<g>
	<path class="st0" d="M341.9,58.6c-78.1-78.1-205.2-78.1-283.3,0c-78.1,78.1-78.1,205.2,0,283.4c69.6,69.5,177.9,77,255.9,22.7
		c1.6,7.8,5.4,15.2,11.4,21.2l113.7,113.7c16.6,16.5,43.4,16.5,59.9,0c16.6-16.6,16.6-43.3,0-59.9L385.8,326
		c-6-6-13.4-9.8-21.2-11.4C418.9,236.5,411.5,128.2,341.9,58.6z M306,306c-58.3,58.3-153.2,58.3-211.5,0
		c-58.3-58.3-58.3-153.2,0-211.5c58.3-58.3,153.2-58.3,211.5,0C364.3,152.8,364.3,247.7,306,306z"/>
</g>
</svg>
